<mxfile host="app.diagrams.net" agent="Mozilla/5.0 (Windows NT 10.0; Win64; x64) AppleWebKit/537.36 (KHTML, like Gecko) Chrome/133.0.0.0 Safari/537.36" version="26.0.13">
  <diagram name="Page-1" id="FCLkKfMt138AjFzSbY6V">
    <mxGraphModel dx="1500" dy="1965" grid="1" gridSize="10" guides="1" tooltips="1" connect="1" arrows="1" fold="1" page="1" pageScale="1" pageWidth="827" pageHeight="1169" math="0" shadow="0">
      <root>
        <mxCell id="0" />
        <mxCell id="1" parent="0" />
        <mxCell id="tRkc1L7Vy7hYcFwKQHpH-1" value="" style="whiteSpace=wrap;html=1;aspect=fixed;fillColor=#dae8fc;strokeColor=#6c8ebf;" vertex="1" parent="1">
          <mxGeometry x="250" y="30" width="1250" height="1250" as="geometry" />
        </mxCell>
        <mxCell id="tRkc1L7Vy7hYcFwKQHpH-3" value="admin" style="shape=umlActor;verticalLabelPosition=bottom;verticalAlign=top;html=1;outlineConnect=0;" vertex="1" parent="1">
          <mxGeometry x="170" y="150" width="30" height="60" as="geometry" />
        </mxCell>
        <mxCell id="tRkc1L7Vy7hYcFwKQHpH-4" value="doctor" style="shape=umlActor;verticalLabelPosition=bottom;verticalAlign=top;html=1;outlineConnect=0;" vertex="1" parent="1">
          <mxGeometry x="160" y="440" width="30" height="60" as="geometry" />
        </mxCell>
        <mxCell id="tRkc1L7Vy7hYcFwKQHpH-5" value="patient" style="shape=umlActor;verticalLabelPosition=bottom;verticalAlign=top;html=1;outlineConnect=0;" vertex="1" parent="1">
          <mxGeometry x="180" y="1020" width="30" height="60" as="geometry" />
        </mxCell>
        <mxCell id="tRkc1L7Vy7hYcFwKQHpH-8" value="authentification" style="ellipse;whiteSpace=wrap;html=1;" vertex="1" parent="1">
          <mxGeometry x="910" y="615" width="120" height="80" as="geometry" />
        </mxCell>
        <mxCell id="tRkc1L7Vy7hYcFwKQHpH-9" value="gererUser" style="ellipse;whiteSpace=wrap;html=1;" vertex="1" parent="1">
          <mxGeometry x="472" y="130" width="86" height="50" as="geometry" />
        </mxCell>
        <mxCell id="tRkc1L7Vy7hYcFwKQHpH-10" value="voirRendezVous" style="ellipse;whiteSpace=wrap;html=1;" vertex="1" parent="1">
          <mxGeometry x="470" y="305" width="110" height="50" as="geometry" />
        </mxCell>
        <mxCell id="tRkc1L7Vy7hYcFwKQHpH-11" value="AjouterConsultation" style="ellipse;whiteSpace=wrap;html=1;" vertex="1" parent="1">
          <mxGeometry x="460" y="370" width="120" height="50" as="geometry" />
        </mxCell>
        <mxCell id="tRkc1L7Vy7hYcFwKQHpH-12" value="confirmRendezVous" style="ellipse;whiteSpace=wrap;html=1;" vertex="1" parent="1">
          <mxGeometry x="450" y="445" width="130" height="50" as="geometry" />
        </mxCell>
        <mxCell id="tRkc1L7Vy7hYcFwKQHpH-13" value="anullerRendezVous" style="ellipse;whiteSpace=wrap;html=1;" vertex="1" parent="1">
          <mxGeometry x="450" y="510" width="110" height="50" as="geometry" />
        </mxCell>
        <mxCell id="tRkc1L7Vy7hYcFwKQHpH-16" value="modifierDisponibalite" style="ellipse;whiteSpace=wrap;html=1;" vertex="1" parent="1">
          <mxGeometry x="455" y="584.5" width="130" height="50" as="geometry" />
        </mxCell>
        <mxCell id="tRkc1L7Vy7hYcFwKQHpH-17" value="RequestRendezVous" style="ellipse;whiteSpace=wrap;html=1;" vertex="1" parent="1">
          <mxGeometry x="558" y="870" width="135" height="60" as="geometry" />
        </mxCell>
        <mxCell id="tRkc1L7Vy7hYcFwKQHpH-18" value="VoirRendezVous" style="ellipse;whiteSpace=wrap;html=1;" vertex="1" parent="1">
          <mxGeometry x="553" y="950" width="145" height="50" as="geometry" />
        </mxCell>
        <mxCell id="tRkc1L7Vy7hYcFwKQHpH-19" value="modifierRendezVous" style="ellipse;whiteSpace=wrap;html=1;" vertex="1" parent="1">
          <mxGeometry x="556" y="1020" width="137" height="40" as="geometry" />
        </mxCell>
        <mxCell id="tRkc1L7Vy7hYcFwKQHpH-20" value="supprimerRendezVous" style="ellipse;whiteSpace=wrap;html=1;" vertex="1" parent="1">
          <mxGeometry x="555.5" y="1070" width="140" height="50" as="geometry" />
        </mxCell>
        <mxCell id="tRkc1L7Vy7hYcFwKQHpH-21" value="appelVideo" style="ellipse;whiteSpace=wrap;html=1;" vertex="1" parent="1">
          <mxGeometry x="568" y="1140" width="130" height="40" as="geometry" />
        </mxCell>
        <mxCell id="tRkc1L7Vy7hYcFwKQHpH-22" value="quitterAppelVideo" style="ellipse;whiteSpace=wrap;html=1;" vertex="1" parent="1">
          <mxGeometry x="585" y="1200" width="122" height="31" as="geometry" />
        </mxCell>
        <mxCell id="tRkc1L7Vy7hYcFwKQHpH-23" value="appelVideo" style="ellipse;whiteSpace=wrap;html=1;" vertex="1" parent="1">
          <mxGeometry x="602" y="704.5" width="130" height="40" as="geometry" />
        </mxCell>
        <mxCell id="tRkc1L7Vy7hYcFwKQHpH-24" value="quitterAppelVideo" style="ellipse;whiteSpace=wrap;html=1;" vertex="1" parent="1">
          <mxGeometry x="610" y="770" width="122" height="31" as="geometry" />
        </mxCell>
        <mxCell id="tRkc1L7Vy7hYcFwKQHpH-25" value="&lt;font style=&quot;font-size: 26px;&quot;&gt;RdvSant&lt;/font&gt;-" style="text;html=1;align=center;verticalAlign=middle;resizable=0;points=[];autosize=1;strokeColor=none;fillColor=none;" vertex="1" parent="1">
          <mxGeometry x="630" y="-20" width="130" height="40" as="geometry" />
        </mxCell>
        <mxCell id="tRkc1L7Vy7hYcFwKQHpH-119" value="" style="endArrow=none;html=1;rounded=0;exitX=1;exitY=0.3333333333333333;exitDx=0;exitDy=0;exitPerimeter=0;" edge="1" parent="1" source="tRkc1L7Vy7hYcFwKQHpH-3" target="tRkc1L7Vy7hYcFwKQHpH-9">
          <mxGeometry width="50" height="50" relative="1" as="geometry">
            <mxPoint x="450" y="150" as="sourcePoint" />
            <mxPoint x="500" y="100" as="targetPoint" />
          </mxGeometry>
        </mxCell>
        <mxCell id="tRkc1L7Vy7hYcFwKQHpH-120" value="" style="endArrow=none;html=1;rounded=0;exitX=1;exitY=0.3333333333333333;exitDx=0;exitDy=0;exitPerimeter=0;entryX=0.065;entryY=0.7;entryDx=0;entryDy=0;entryPerimeter=0;" edge="1" parent="1" source="tRkc1L7Vy7hYcFwKQHpH-4" target="tRkc1L7Vy7hYcFwKQHpH-10">
          <mxGeometry width="50" height="50" relative="1" as="geometry">
            <mxPoint x="450" y="410" as="sourcePoint" />
            <mxPoint x="500" y="360" as="targetPoint" />
          </mxGeometry>
        </mxCell>
        <mxCell id="tRkc1L7Vy7hYcFwKQHpH-121" value="" style="endArrow=none;html=1;rounded=0;entryX=0.003;entryY=0.648;entryDx=0;entryDy=0;exitX=1;exitY=0.3333333333333333;exitDx=0;exitDy=0;exitPerimeter=0;entryPerimeter=0;" edge="1" parent="1" source="tRkc1L7Vy7hYcFwKQHpH-4" target="tRkc1L7Vy7hYcFwKQHpH-11">
          <mxGeometry width="50" height="50" relative="1" as="geometry">
            <mxPoint x="220" y="510" as="sourcePoint" />
            <mxPoint x="537.4000000000001" y="456.8000000000002" as="targetPoint" />
          </mxGeometry>
        </mxCell>
        <mxCell id="tRkc1L7Vy7hYcFwKQHpH-122" value="" style="endArrow=none;html=1;rounded=0;entryX=0;entryY=0.5;entryDx=0;entryDy=0;exitX=1;exitY=0.3333333333333333;exitDx=0;exitDy=0;exitPerimeter=0;" edge="1" parent="1" source="tRkc1L7Vy7hYcFwKQHpH-4" target="tRkc1L7Vy7hYcFwKQHpH-12">
          <mxGeometry width="50" height="50" relative="1" as="geometry">
            <mxPoint x="360" y="530" as="sourcePoint" />
            <mxPoint x="410" y="480" as="targetPoint" />
          </mxGeometry>
        </mxCell>
        <mxCell id="tRkc1L7Vy7hYcFwKQHpH-123" value="" style="endArrow=none;html=1;rounded=0;exitX=1;exitY=0.3333333333333333;exitDx=0;exitDy=0;exitPerimeter=0;entryX=0;entryY=0.5;entryDx=0;entryDy=0;" edge="1" parent="1" source="tRkc1L7Vy7hYcFwKQHpH-4" target="tRkc1L7Vy7hYcFwKQHpH-13">
          <mxGeometry width="50" height="50" relative="1" as="geometry">
            <mxPoint x="450" y="470" as="sourcePoint" />
            <mxPoint x="500" y="420" as="targetPoint" />
          </mxGeometry>
        </mxCell>
        <mxCell id="tRkc1L7Vy7hYcFwKQHpH-124" value="" style="endArrow=none;html=1;rounded=0;exitX=1;exitY=0.3333333333333333;exitDx=0;exitDy=0;exitPerimeter=0;entryX=0;entryY=0.5;entryDx=0;entryDy=0;" edge="1" parent="1" source="tRkc1L7Vy7hYcFwKQHpH-4" target="tRkc1L7Vy7hYcFwKQHpH-16">
          <mxGeometry width="50" height="50" relative="1" as="geometry">
            <mxPoint x="450" y="470" as="sourcePoint" />
            <mxPoint x="500" y="420" as="targetPoint" />
          </mxGeometry>
        </mxCell>
        <mxCell id="tRkc1L7Vy7hYcFwKQHpH-125" value="" style="endArrow=none;html=1;rounded=0;exitX=1;exitY=0.3333333333333333;exitDx=0;exitDy=0;exitPerimeter=0;entryX=0;entryY=0.5;entryDx=0;entryDy=0;" edge="1" parent="1" source="tRkc1L7Vy7hYcFwKQHpH-4" target="tRkc1L7Vy7hYcFwKQHpH-23">
          <mxGeometry width="50" height="50" relative="1" as="geometry">
            <mxPoint x="450" y="580" as="sourcePoint" />
            <mxPoint x="500" y="530" as="targetPoint" />
          </mxGeometry>
        </mxCell>
        <mxCell id="tRkc1L7Vy7hYcFwKQHpH-126" value="" style="endArrow=none;html=1;rounded=0;exitX=1;exitY=0.3333333333333333;exitDx=0;exitDy=0;exitPerimeter=0;entryX=0;entryY=0.5;entryDx=0;entryDy=0;" edge="1" parent="1" source="tRkc1L7Vy7hYcFwKQHpH-4" target="tRkc1L7Vy7hYcFwKQHpH-24">
          <mxGeometry width="50" height="50" relative="1" as="geometry">
            <mxPoint x="450" y="580" as="sourcePoint" />
            <mxPoint x="500" y="530" as="targetPoint" />
          </mxGeometry>
        </mxCell>
        <mxCell id="tRkc1L7Vy7hYcFwKQHpH-127" value="" style="endArrow=none;html=1;rounded=0;exitX=1;exitY=0.3333333333333333;exitDx=0;exitDy=0;exitPerimeter=0;entryX=0;entryY=0.5;entryDx=0;entryDy=0;" edge="1" parent="1" source="tRkc1L7Vy7hYcFwKQHpH-5" target="tRkc1L7Vy7hYcFwKQHpH-17">
          <mxGeometry width="50" height="50" relative="1" as="geometry">
            <mxPoint x="450" y="1030" as="sourcePoint" />
            <mxPoint x="500" y="980" as="targetPoint" />
          </mxGeometry>
        </mxCell>
        <mxCell id="tRkc1L7Vy7hYcFwKQHpH-128" value="" style="endArrow=none;html=1;rounded=0;exitX=1;exitY=0.3333333333333333;exitDx=0;exitDy=0;exitPerimeter=0;entryX=0.062;entryY=0.672;entryDx=0;entryDy=0;entryPerimeter=0;" edge="1" parent="1" source="tRkc1L7Vy7hYcFwKQHpH-5" target="tRkc1L7Vy7hYcFwKQHpH-18">
          <mxGeometry width="50" height="50" relative="1" as="geometry">
            <mxPoint x="450" y="1030" as="sourcePoint" />
            <mxPoint x="500" y="980" as="targetPoint" />
          </mxGeometry>
        </mxCell>
        <mxCell id="tRkc1L7Vy7hYcFwKQHpH-129" value="" style="endArrow=none;html=1;rounded=0;exitX=1;exitY=0.3333333333333333;exitDx=0;exitDy=0;exitPerimeter=0;entryX=0.036;entryY=0.7;entryDx=0;entryDy=0;entryPerimeter=0;" edge="1" parent="1" source="tRkc1L7Vy7hYcFwKQHpH-5" target="tRkc1L7Vy7hYcFwKQHpH-19">
          <mxGeometry width="50" height="50" relative="1" as="geometry">
            <mxPoint x="450" y="1030" as="sourcePoint" />
            <mxPoint x="500" y="980" as="targetPoint" />
          </mxGeometry>
        </mxCell>
        <mxCell id="tRkc1L7Vy7hYcFwKQHpH-130" value="" style="endArrow=none;html=1;rounded=0;exitX=1;exitY=0.3333333333333333;exitDx=0;exitDy=0;exitPerimeter=0;entryX=0;entryY=0.5;entryDx=0;entryDy=0;" edge="1" parent="1" source="tRkc1L7Vy7hYcFwKQHpH-5" target="tRkc1L7Vy7hYcFwKQHpH-20">
          <mxGeometry width="50" height="50" relative="1" as="geometry">
            <mxPoint x="450" y="1030" as="sourcePoint" />
            <mxPoint x="500" y="980" as="targetPoint" />
          </mxGeometry>
        </mxCell>
        <mxCell id="tRkc1L7Vy7hYcFwKQHpH-131" value="" style="endArrow=none;html=1;rounded=0;exitX=1;exitY=0.3333333333333333;exitDx=0;exitDy=0;exitPerimeter=0;entryX=0.055;entryY=0.63;entryDx=0;entryDy=0;entryPerimeter=0;" edge="1" parent="1" source="tRkc1L7Vy7hYcFwKQHpH-5" target="tRkc1L7Vy7hYcFwKQHpH-21">
          <mxGeometry width="50" height="50" relative="1" as="geometry">
            <mxPoint x="450" y="1030" as="sourcePoint" />
            <mxPoint x="500" y="980" as="targetPoint" />
          </mxGeometry>
        </mxCell>
        <mxCell id="tRkc1L7Vy7hYcFwKQHpH-132" value="" style="endArrow=none;html=1;rounded=0;entryX=0.033;entryY=0.277;entryDx=0;entryDy=0;entryPerimeter=0;exitX=1;exitY=0.3333333333333333;exitDx=0;exitDy=0;exitPerimeter=0;" edge="1" parent="1" source="tRkc1L7Vy7hYcFwKQHpH-5" target="tRkc1L7Vy7hYcFwKQHpH-22">
          <mxGeometry width="50" height="50" relative="1" as="geometry">
            <mxPoint x="220" y="1040" as="sourcePoint" />
            <mxPoint x="500" y="980" as="targetPoint" />
          </mxGeometry>
        </mxCell>
        <mxCell id="tRkc1L7Vy7hYcFwKQHpH-225" value="&lt;font style=&quot;font-size: 14px;&quot;&gt;&amp;lt;&amp;lt;include&amp;gt;&amp;gt;&lt;/font&gt;" style="endArrow=open;endSize=12;dashed=1;html=1;rounded=0;exitX=1;exitY=0.5;exitDx=0;exitDy=0;entryX=0.5;entryY=0;entryDx=0;entryDy=0;" edge="1" parent="1" source="tRkc1L7Vy7hYcFwKQHpH-9" target="tRkc1L7Vy7hYcFwKQHpH-8">
          <mxGeometry width="160" relative="1" as="geometry">
            <mxPoint x="740" y="360" as="sourcePoint" />
            <mxPoint x="900" y="360" as="targetPoint" />
          </mxGeometry>
        </mxCell>
        <mxCell id="tRkc1L7Vy7hYcFwKQHpH-226" value="&lt;font style=&quot;font-size: 14px;&quot;&gt;&amp;lt;&amp;lt;include&amp;gt;&amp;gt;&lt;/font&gt;" style="endArrow=open;endSize=12;dashed=1;html=1;rounded=0;entryX=0.326;entryY=0.025;entryDx=0;entryDy=0;exitX=1;exitY=0.5;exitDx=0;exitDy=0;entryPerimeter=0;" edge="1" parent="1" source="tRkc1L7Vy7hYcFwKQHpH-10" target="tRkc1L7Vy7hYcFwKQHpH-8">
          <mxGeometry width="160" relative="1" as="geometry">
            <mxPoint x="568" y="165" as="sourcePoint" />
            <mxPoint x="980" y="639" as="targetPoint" />
          </mxGeometry>
        </mxCell>
        <mxCell id="tRkc1L7Vy7hYcFwKQHpH-227" value="&lt;font style=&quot;font-size: 14px;&quot;&gt;&amp;lt;&amp;lt;include&amp;gt;&amp;gt;&lt;/font&gt;" style="endArrow=open;endSize=12;dashed=1;html=1;rounded=0;exitX=1;exitY=0.5;exitDx=0;exitDy=0;entryX=0.069;entryY=0.325;entryDx=0;entryDy=0;entryPerimeter=0;" edge="1" parent="1" source="tRkc1L7Vy7hYcFwKQHpH-11" target="tRkc1L7Vy7hYcFwKQHpH-8">
          <mxGeometry width="160" relative="1" as="geometry">
            <mxPoint x="578" y="175" as="sourcePoint" />
            <mxPoint x="990" y="649" as="targetPoint" />
          </mxGeometry>
        </mxCell>
        <mxCell id="tRkc1L7Vy7hYcFwKQHpH-228" value="&lt;font style=&quot;font-size: 14px;&quot;&gt;&amp;lt;&amp;lt;include&amp;gt;&amp;gt;&lt;/font&gt;" style="endArrow=open;endSize=12;dashed=1;html=1;rounded=0;exitX=1;exitY=0.5;exitDx=0;exitDy=0;entryX=0;entryY=0.5;entryDx=0;entryDy=0;" edge="1" parent="1" source="tRkc1L7Vy7hYcFwKQHpH-12" target="tRkc1L7Vy7hYcFwKQHpH-8">
          <mxGeometry width="160" relative="1" as="geometry">
            <mxPoint x="588" y="185" as="sourcePoint" />
            <mxPoint x="1000" y="659" as="targetPoint" />
          </mxGeometry>
        </mxCell>
        <mxCell id="tRkc1L7Vy7hYcFwKQHpH-229" value="&lt;font style=&quot;font-size: 14px;&quot;&gt;&amp;lt;&amp;lt;include&amp;gt;&amp;gt;&lt;/font&gt;" style="endArrow=open;endSize=12;dashed=1;html=1;rounded=0;exitX=1;exitY=0.5;exitDx=0;exitDy=0;entryX=0;entryY=1;entryDx=0;entryDy=0;" edge="1" parent="1" source="tRkc1L7Vy7hYcFwKQHpH-13" target="tRkc1L7Vy7hYcFwKQHpH-8">
          <mxGeometry width="160" relative="1" as="geometry">
            <mxPoint x="598" y="195" as="sourcePoint" />
            <mxPoint x="1010" y="669" as="targetPoint" />
          </mxGeometry>
        </mxCell>
        <mxCell id="tRkc1L7Vy7hYcFwKQHpH-230" value="&lt;font style=&quot;font-size: 14px;&quot;&gt;&amp;lt;&amp;lt;include&amp;gt;&amp;gt;&lt;/font&gt;" style="endArrow=open;endSize=12;dashed=1;html=1;rounded=0;exitX=0.997;exitY=0.724;exitDx=0;exitDy=0;exitPerimeter=0;entryX=0.062;entryY=0.753;entryDx=0;entryDy=0;entryPerimeter=0;" edge="1" parent="1" source="tRkc1L7Vy7hYcFwKQHpH-16" target="tRkc1L7Vy7hYcFwKQHpH-8">
          <mxGeometry width="160" relative="1" as="geometry">
            <mxPoint x="608" y="205" as="sourcePoint" />
            <mxPoint x="920" y="690" as="targetPoint" />
          </mxGeometry>
        </mxCell>
        <mxCell id="tRkc1L7Vy7hYcFwKQHpH-233" value="&lt;font style=&quot;font-size: 14px;&quot;&gt;&amp;lt;&amp;lt;include&amp;gt;&amp;gt;&lt;/font&gt;" style="endArrow=open;endSize=12;dashed=1;html=1;rounded=0;exitX=1;exitY=0.5;exitDx=0;exitDy=0;entryX=0.26;entryY=0.896;entryDx=0;entryDy=0;entryPerimeter=0;" edge="1" parent="1" source="tRkc1L7Vy7hYcFwKQHpH-23" target="tRkc1L7Vy7hYcFwKQHpH-8">
          <mxGeometry width="160" relative="1" as="geometry">
            <mxPoint x="618" y="215" as="sourcePoint" />
            <mxPoint x="940" y="710" as="targetPoint" />
          </mxGeometry>
        </mxCell>
        <mxCell id="tRkc1L7Vy7hYcFwKQHpH-234" value="&lt;font style=&quot;font-size: 14px;&quot;&gt;&amp;lt;&amp;lt;include&amp;gt;&amp;gt;&lt;/font&gt;" style="endArrow=open;endSize=12;dashed=1;html=1;rounded=0;exitX=1;exitY=0.5;exitDx=0;exitDy=0;entryX=0.593;entryY=0.982;entryDx=0;entryDy=0;entryPerimeter=0;" edge="1" parent="1" source="tRkc1L7Vy7hYcFwKQHpH-24" target="tRkc1L7Vy7hYcFwKQHpH-8">
          <mxGeometry width="160" relative="1" as="geometry">
            <mxPoint x="628" y="225" as="sourcePoint" />
            <mxPoint x="1040" y="699" as="targetPoint" />
          </mxGeometry>
        </mxCell>
        <mxCell id="tRkc1L7Vy7hYcFwKQHpH-236" value="&lt;font style=&quot;font-size: 14px;&quot;&gt;&amp;lt;&amp;lt;include&amp;gt;&amp;gt;&lt;/font&gt;" style="endArrow=open;endSize=12;dashed=1;html=1;rounded=0;exitX=0.65;exitY=-0.055;exitDx=0;exitDy=0;entryX=0.693;entryY=0.945;entryDx=0;entryDy=0;entryPerimeter=0;exitPerimeter=0;" edge="1" parent="1" source="tRkc1L7Vy7hYcFwKQHpH-17" target="tRkc1L7Vy7hYcFwKQHpH-8">
          <mxGeometry width="160" relative="1" as="geometry">
            <mxPoint x="742" y="795" as="sourcePoint" />
            <mxPoint x="1011" y="689" as="targetPoint" />
          </mxGeometry>
        </mxCell>
        <mxCell id="tRkc1L7Vy7hYcFwKQHpH-237" value="&lt;font style=&quot;font-size: 14px;&quot;&gt;&amp;lt;&amp;lt;include&amp;gt;&amp;gt;&lt;/font&gt;" style="endArrow=open;endSize=12;dashed=1;html=1;rounded=0;exitX=1;exitY=0;exitDx=0;exitDy=0;entryX=0.721;entryY=0.945;entryDx=0;entryDy=0;entryPerimeter=0;" edge="1" parent="1" source="tRkc1L7Vy7hYcFwKQHpH-18" target="tRkc1L7Vy7hYcFwKQHpH-8">
          <mxGeometry width="160" relative="1" as="geometry">
            <mxPoint x="752" y="805" as="sourcePoint" />
            <mxPoint x="1021" y="699" as="targetPoint" />
          </mxGeometry>
        </mxCell>
        <mxCell id="tRkc1L7Vy7hYcFwKQHpH-238" value="&lt;font style=&quot;font-size: 14px;&quot;&gt;&amp;lt;&amp;lt;include&amp;gt;&amp;gt;&lt;/font&gt;" style="endArrow=open;endSize=12;dashed=1;html=1;rounded=0;exitX=0.711;exitY=0.096;exitDx=0;exitDy=0;entryX=1;entryY=1;entryDx=0;entryDy=0;exitPerimeter=0;" edge="1" parent="1" source="tRkc1L7Vy7hYcFwKQHpH-19" target="tRkc1L7Vy7hYcFwKQHpH-8">
          <mxGeometry width="160" relative="1" as="geometry">
            <mxPoint x="762" y="815" as="sourcePoint" />
            <mxPoint x="1031" y="709" as="targetPoint" />
          </mxGeometry>
        </mxCell>
        <mxCell id="tRkc1L7Vy7hYcFwKQHpH-239" value="&lt;font style=&quot;font-size: 14px;&quot;&gt;&amp;lt;&amp;lt;include&amp;gt;&amp;gt;&lt;/font&gt;" style="endArrow=open;endSize=12;dashed=1;html=1;rounded=0;exitX=0.773;exitY=0.157;exitDx=0;exitDy=0;entryX=0.95;entryY=0.802;entryDx=0;entryDy=0;entryPerimeter=0;exitPerimeter=0;" edge="1" parent="1" source="tRkc1L7Vy7hYcFwKQHpH-20" target="tRkc1L7Vy7hYcFwKQHpH-8">
          <mxGeometry width="160" relative="1" as="geometry">
            <mxPoint x="772" y="825" as="sourcePoint" />
            <mxPoint x="1041" y="719" as="targetPoint" />
          </mxGeometry>
        </mxCell>
        <mxCell id="tRkc1L7Vy7hYcFwKQHpH-240" value="&lt;font style=&quot;font-size: 14px;&quot;&gt;&amp;lt;&amp;lt;include&amp;gt;&amp;gt;&lt;/font&gt;" style="endArrow=open;endSize=12;dashed=1;html=1;rounded=0;exitX=0.738;exitY=0.036;exitDx=0;exitDy=0;entryX=1;entryY=0.5;entryDx=0;entryDy=0;exitPerimeter=0;" edge="1" parent="1" source="tRkc1L7Vy7hYcFwKQHpH-21" target="tRkc1L7Vy7hYcFwKQHpH-8">
          <mxGeometry width="160" relative="1" as="geometry">
            <mxPoint x="782" y="835" as="sourcePoint" />
            <mxPoint x="1051" y="729" as="targetPoint" />
          </mxGeometry>
        </mxCell>
        <mxCell id="tRkc1L7Vy7hYcFwKQHpH-241" value="&lt;font style=&quot;font-size: 14px;&quot;&gt;&amp;lt;&amp;lt;include&amp;gt;&amp;gt;&lt;/font&gt;" style="endArrow=open;endSize=12;dashed=1;html=1;rounded=0;exitX=0.742;exitY=0.115;exitDx=0;exitDy=0;entryX=0.988;entryY=0.373;entryDx=0;entryDy=0;entryPerimeter=0;exitPerimeter=0;" edge="1" parent="1" source="tRkc1L7Vy7hYcFwKQHpH-22" target="tRkc1L7Vy7hYcFwKQHpH-8">
          <mxGeometry width="160" relative="1" as="geometry">
            <mxPoint x="792" y="845" as="sourcePoint" />
            <mxPoint x="1061" y="739" as="targetPoint" />
          </mxGeometry>
        </mxCell>
      </root>
    </mxGraphModel>
  </diagram>
</mxfile>
